<?xml version="1.0" standalone="no"?>
<!DOCTYPE svg PUBLIC "-//W3C//DTD SVG 20010904//EN"
 "http://www.w3.org/TR/2001/REC-SVG-20010904/DTD/svg10.dtd">
<svg version="1.0" xmlns="http://www.w3.org/2000/svg"
 width="800.000000pt" height="1001.000000pt" viewBox="0 0 800.000000 1001.000000"
 preserveAspectRatio="xMidYMid meet">
<metadata>
Created by potrace 1.16, written by Peter Selinger 2001-2019
</metadata>
<g transform="translate(0.000000,1001.000000) scale(0.100000,-0.100000)"
fill="#000000" stroke="none">
<path d="M3241 9116 c-9 -11 -9 -20 -2 -35 14 -25 14 -41 1 -21 -8 13 -10 12
-10 -3 0 -10 -4 -16 -9 -12 -6 3 -15 -4 -22 -17 -11 -20 -12 -20 -24 -4 -7 9
-17 18 -22 18 -24 3 -43 11 -43 20 0 5 -9 4 -20 -2 -15 -8 -19 -17 -15 -31 5
-15 2 -19 -20 -19 -14 0 -24 -4 -21 -9 3 -5 -2 -8 -12 -7 -9 0 -16 -5 -14 -11
1 -7 -3 -14 -8 -14 -20 -3 -25 -5 -45 -17 -19 -13 -19 -13 3 -8 l24 5 -24 -23
c-13 -12 -26 -21 -30 -19 -5 2 -8 -1 -8 -7 0 -6 -4 -8 -10 -5 -5 3 -7 0 -4 -8
3 -8 -3 -21 -14 -29 -16 -11 -52 -75 -56 -99 -1 -3 -9 -13 -18 -23 -10 -10
-19 -24 -19 -32 -1 -8 -2 -19 -3 -25 0 -5 -10 -20 -22 -32 -25 -27 -37 -57
-22 -57 7 0 7 -5 -2 -15 -6 -8 -9 -23 -5 -35 4 -13 2 -20 -7 -20 -20 0 -38
-35 -32 -64 3 -17 -2 -32 -16 -46 -11 -11 -16 -20 -11 -20 5 0 14 7 21 15 7 9
15 13 18 10 3 -3 -5 -16 -18 -30 -21 -22 -21 -25 -6 -25 15 0 17 -5 11 -27 -4
-16 -9 -35 -10 -43 -2 -8 -4 -16 -5 -17 -2 -2 -3 -6 -4 -10 -1 -5 -8 -19 -15
-33 -13 -23 -13 -24 2 -11 12 9 17 10 17 2 0 -7 5 -9 10 -6 14 9 12 -3 -8 -49
-10 -23 -24 -63 -31 -91 -7 -27 -16 -51 -22 -53 -5 -2 -9 -11 -9 -21 0 -9 -5
-22 -11 -28 -23 -23 107 -27 135 -4 11 9 16 10 16 2 0 -6 -5 -11 -11 -11 -8 0
-8 -5 1 -15 7 -8 9 -15 4 -15 -12 0 19 -20 31 -20 6 0 11 9 11 20 0 11 -4 20
-9 20 -5 0 -4 6 2 14 9 10 9 16 1 21 -6 4 -9 13 -6 20 3 9 -4 15 -17 18 -18 3
-16 5 13 14 19 6 30 12 23 12 -7 1 -10 8 -6 19 5 14 3 15 -8 5 -7 -7 -18 -13
-23 -13 -6 0 -4 5 4 10 12 8 10 10 -8 10 -21 0 -22 2 -8 15 8 8 21 15 30 15 8
0 18 5 21 10 4 6 3 9 -2 8 -4 -2 -9 0 -10 5 -8 21 0 39 32 77 19 23 35 50 35
60 0 11 5 22 10 25 6 3 10 15 10 26 0 11 12 37 28 56 15 20 25 37 23 37 -2 1
6 21 18 44 12 24 20 46 17 49 -3 4 6 17 20 30 14 12 22 28 19 33 -4 6 -1 17 5
25 6 8 9 19 5 25 -3 6 4 10 17 11 22 0 22 1 3 9 -11 5 -14 9 -6 9 7 1 11 7 7
16 -3 8 -1 15 5 15 6 0 8 4 4 9 -3 5 5 17 17 25 12 9 19 16 14 16 -5 0 -3 6 3
14 9 11 9 16 0 21 -7 5 1 13 22 22 30 13 32 16 15 22 -17 7 -18 8 -3 14 9 3
17 14 17 23 0 9 12 27 28 40 15 13 23 24 18 24 -5 0 4 13 21 29 26 25 28 29
14 40 -13 10 -11 11 11 6 15 -3 30 -1 33 5 3 5 1 10 -4 10 -6 0 -11 7 -11 16
0 14 3 14 15 4 9 -7 18 -10 22 -6 3 3 1 6 -6 6 -9 0 -8 4 3 15 8 8 21 15 28
15 10 0 10 2 -1 9 -11 7 -11 9 0 13 8 3 -3 10 -24 17 -26 9 -37 18 -33 27 7
18 2 18 -13 0z"/>
<path d="M3619 8766 c0 -1 -2 -18 -3 -38 -2 -23 1 -35 7 -31 6 3 7 1 3 -6 -5
-8 -15 -6 -33 9 -14 11 -29 17 -34 14 -5 -3 -6 2 -3 10 3 9 1 16 -6 16 -6 0
-9 -4 -5 -9 7 -13 -36 -10 -55 3 -8 6 -6 0 5 -12 11 -13 21 -19 23 -13 3 8 9
8 23 1 22 -12 62 -84 52 -94 -4 -4 -6 -26 -5 -49 2 -31 0 -38 -8 -27 -7 11
-10 11 -10 2 0 -7 -4 -10 -10 -7 -5 3 -10 14 -10 23 0 9 -22 32 -50 51 -44 30
-55 33 -99 29 -54 -5 -171 -55 -171 -73 0 -6 -33 -45 -74 -87 -52 -52 -71 -79
-66 -89 5 -7 6 -17 4 -21 -3 -4 2 -8 12 -8 14 0 14 3 4 15 -10 13 -11 18 -1
28 10 9 11 8 6 -5 -10 -25 17 -24 32 1 6 10 23 21 37 23 21 4 28 -1 43 -31 9
-20 16 -39 15 -44 -2 -6 41 -29 60 -31 3 -1 10 -4 14 -8 13 -14 47 -9 67 10
11 9 17 11 13 5 -10 -17 4 -16 29 3 11 8 38 19 60 26 22 6 35 13 28 15 -7 2
-2 14 13 30 13 14 21 29 19 33 -3 4 2 11 11 14 22 9 23 8 17 -14 -4 -14 0 -20
11 -20 9 0 16 7 16 15 0 9 6 12 15 9 8 -4 15 -1 15 6 0 7 13 10 33 8 26 -2 31
0 29 15 -2 9 4 24 12 33 12 11 13 20 6 33 -6 13 -4 28 10 54 23 42 24 47 11
47 -18 0 -43 -33 -38 -51 7 -27 -12 -107 -28 -113 -7 -2 -21 7 -30 21 -10 14
-12 22 -6 19 12 -7 14 -2 26 49 7 27 8 28 16 10 6 -15 7 -10 4 15 -6 55 -7 57
-14 25 -3 -16 -9 -28 -13 -25 -4 3 -14 -4 -22 -15 -15 -20 -15 -20 -9 3 3 12
10 25 15 28 5 3 4 12 -3 20 -6 7 -9 20 -6 28 4 10 1 13 -9 9 -7 -3 -14 0 -14
6 0 6 7 11 15 11 14 0 17 5 19 42 1 10 4 18 9 18 56 1 55 2 43 -35 -6 -19 -12
-31 -14 -25 -5 13 -22 13 -22 1 0 -5 9 -12 19 -16 14 -4 18 -12 14 -23 -6 -16
-5 -16 14 1 11 9 22 15 24 13 2 -2 4 8 4 24 0 15 -3 26 -7 23 -7 -4 -13 39 -8
62 1 6 -4 5 -10 -1 -12 -12 -50 -7 -50 5 0 6 -26 11 -31 7z"/>
<path d="M5322 8698 c-12 -12 0 -46 22 -60 8 -6 7 -11 -3 -17 -11 -7 -10 -11
5 -20 16 -11 15 -11 -11 -6 l-30 5 28 -21 c25 -19 26 -22 11 -34 -16 -11 -16
-14 5 -36 19 -21 20 -24 6 -27 -15 -3 -15 -5 1 -16 26 -20 27 -45 0 -39 -20 5
-20 4 3 -15 22 -18 22 -19 5 -27 -17 -7 -17 -8 6 -15 19 -6 20 -8 6 -9 -13 -1
-16 -5 -9 -13 6 -7 13 -21 16 -30 5 -13 2 -15 -11 -11 -16 6 -16 5 1 -14 9
-11 14 -22 11 -26 -4 -3 -3 -14 2 -24 4 -10 8 -29 9 -43 2 -36 15 -61 29 -54
6 3 3 -1 -7 -9 -15 -12 -16 -19 -8 -36 6 -11 10 -24 9 -28 -1 -4 4 -19 11 -32
11 -19 11 -22 -1 -15 -9 6 -9 2 3 -16 8 -14 16 -38 17 -55 1 -17 12 -38 24
-49 13 -10 22 -23 21 -27 -2 -5 3 -9 10 -9 8 0 8 -3 -2 -9 -20 -13 -6 -39 23
-43 19 -2 23 -6 17 -17 -7 -11 -13 -12 -23 -3 -13 10 -58 6 -58 -5 0 -2 5 -14
11 -25 6 -12 7 -18 1 -14 -5 3 -13 -2 -18 -12 -10 -23 -12 -122 -3 -128 11 -6
146 -18 194 -17 85 2 108 10 140 44 l31 34 22 -33 c12 -18 22 -38 22 -44 0
-20 50 -97 70 -108 22 -12 26 -1 8 19 -11 11 -10 13 3 8 13 -4 16 -1 11 16 -2
12 -10 28 -16 36 -8 11 -8 13 2 7 7 -4 12 -1 12 8 0 9 -5 16 -11 16 -7 0 -9
10 -7 25 3 14 1 28 -4 31 -5 3 -4 11 2 19 8 9 8 15 0 20 -6 3 -8 10 -5 15 3 5
1 11 -4 14 -5 3 -7 15 -4 26 3 11 1 20 -3 20 -5 0 -9 22 -9 49 0 27 -2 48 -5
46 -3 -2 -12 0 -20 6 -12 7 -11 9 4 9 16 0 17 3 8 12 -14 14 -16 32 -4 24 5
-3 9 1 9 9 0 8 -6 16 -14 19 -7 3 -13 10 -13 17 0 6 7 8 16 5 11 -4 8 3 -8 23
-13 15 -26 27 -29 25 -3 -2 -6 2 -6 9 0 7 -4 21 -8 32 -5 14 -4 16 3 7 7 -11
10 -11 15 2 4 9 -3 25 -16 37 -12 12 -15 18 -7 13 12 -6 11 -3 -2 18 -11 16
-13 29 -7 32 5 2 4 3 -3 2 -7 -2 -12 -10 -12 -19 1 -9 -3 -14 -8 -11 -5 3 -7
12 -4 19 2 7 0 17 -6 23 -6 6 -6 12 3 17 8 6 10 4 4 -5 -5 -9 -4 -11 4 -6 8 6
5 15 -14 31 -27 26 -33 40 -12 30 6 -4 -4 8 -23 25 -19 17 -29 29 -22 25 6 -3
12 -1 12 4 0 6 -7 11 -15 11 -8 0 -12 6 -9 14 3 8 -2 17 -14 20 -10 4 -31 22
-47 42 -15 19 -41 42 -56 50 -33 17 -79 64 -79 81 0 6 -9 15 -20 18 -11 4 -19
9 -17 13 4 7 -28 41 -40 43 -19 4 -43 25 -43 37 0 7 -4 11 -9 8 -13 -9 -42 4
-40 18 6 49 -6 67 -29 44z m323 -498 c-3 -5 9 -16 27 -24 23 -10 27 -15 14
-15 -19 -1 -19 -2 1 -23 26 -29 44 -66 77 -152 l26 -70 -21 -22 -21 -22 -36
24 c-21 13 -43 29 -50 35 -7 6 -19 8 -27 5 -8 -3 -14 -2 -14 2 3 18 -2 26 -9
16 -4 -7 -8 27 -10 74 -1 56 -7 94 -17 109 -14 21 -14 23 0 23 8 0 15 7 15 16
0 11 -6 14 -22 8 -13 -3 -20 -3 -16 1 4 4 22 11 40 15 47 11 50 11 43 0z"/>
<path d="M4756 8524 c-5 -14 -4 -15 9 -4 8 7 15 8 15 3 0 -5 -12 -15 -26 -21
-14 -7 -23 -8 -19 -2 3 5 1 10 -5 10 -7 0 -10 -7 -6 -15 7 -20 -4 -46 -17 -38
-6 3 -7 1 -3 -5 4 -7 3 -12 -3 -12 -6 0 -8 -6 -5 -13 2 -7 -2 -21 -10 -32 -13
-18 -14 -18 -9 10 3 19 1 25 -4 17 -12 -16 -77 4 -66 21 3 6 1 7 -6 3 -6 -4
-14 0 -17 8 -3 9 -10 13 -15 10 -5 -3 -9 -1 -9 4 0 5 -7 9 -15 9 -18 0 -18 -2
-4 -28 6 -12 17 -18 25 -15 8 3 13 2 10 -3 -9 -13 81 -90 92 -79 6 6 12 6 17
-1 3 -6 -4 -15 -17 -20 l-23 -8 23 -7 c12 -4 20 -11 17 -16 -7 -11 25 -70 41
-77 8 -3 11 -10 8 -15 -4 -6 1 -8 12 -4 13 4 36 -7 71 -33 74 -56 138 -90 153
-81 7 4 21 5 31 3 11 -3 26 0 34 7 12 10 18 10 32 -1 15 -13 15 -12 5 8 -16
28 -15 33 4 33 8 0 13 4 10 9 -7 10 17 21 45 21 17 0 22 -12 19 -55 -1 -12 30
-36 39 -30 5 3 12 1 16 -5 3 -5 13 -10 22 -10 9 0 26 -8 37 -17 12 -10 5 -1
-13 20 -27 29 -31 37 -17 37 11 0 15 4 9 13 -4 6 -6 22 -5 34 2 11 -1 24 -7
27 -6 4 -8 13 -4 22 3 8 1 14 -4 12 -12 -4 -103 88 -103 104 0 6 -3 8 -7 5 -3
-4 -16 3 -27 16 -68 70 -133 91 -196 62 -22 -10 -42 -16 -44 -14 -9 9 7 59 19
59 7 0 15 5 17 11 2 6 17 12 33 12 17 0 24 2 18 4 -23 8 -14 22 20 33 l32 10
-35 -4 c-19 -2 -46 1 -59 6 -15 5 -28 5 -36 -2 -9 -8 -14 -6 -19 6 -5 13 -9
14 -22 4 -11 -10 -18 -10 -26 -2 -16 16 -25 15 -32 -4z"/>
<path d="M4038 8163 c23 -9 2 -20 -33 -16 -39 4 -43 -1 -20 -24 9 -8 13 -18
10 -21 -3 -3 -11 0 -17 6 -14 14 -32 16 -23 3 3 -5 -3 -17 -12 -27 -13 -13
-18 -35 -20 -83 -2 -96 -5 -106 -39 -107 -16 -1 -44 5 -63 12 -30 12 -32 12
-21 -1 7 -8 18 -15 24 -15 6 0 17 -9 24 -20 9 -15 19 -18 44 -14 18 4 42 12
53 19 18 11 24 10 43 -12 24 -27 27 -39 12 -48 -5 -3 -10 -13 -10 -22 0 -9 -8
-22 -17 -29 -11 -8 -13 -13 -5 -14 14 0 17 -30 2 -30 -5 0 -21 5 -35 12 -31
14 -40 6 -25 -22 7 -13 17 -19 26 -16 21 8 74 -33 74 -57 0 -11 -8 -26 -17
-34 -10 -8 -13 -12 -6 -9 15 8 25 -8 27 -45 1 -18 -3 -29 -11 -29 -7 0 -13 -6
-13 -14 0 -17 -27 -29 -35 -16 -4 6 -22 2 -43 -10 -20 -11 -55 -24 -77 -30
-23 -5 -50 -18 -61 -28 -32 -31 -73 -55 -97 -57 -12 -1 -28 -3 -34 -4 -7 0
-13 -12 -13 -25 0 -19 -6 -25 -27 -28 -16 -2 -27 -8 -26 -15 2 -7 -3 -13 -11
-13 -8 0 -16 -8 -18 -17 -3 -16 -4 -16 -20 0 -21 21 -28 21 -28 1 0 -11 -6
-14 -21 -9 -14 5 -19 3 -15 -3 4 -6 -3 -16 -14 -22 -11 -6 -20 -20 -20 -31 0
-11 4 -18 9 -15 5 3 11 -14 12 -38 2 -24 1 -42 -3 -39 -5 2 -8 13 -8 23 0 10
-4 22 -10 25 -5 3 -10 19 -10 36 0 36 -23 39 -59 7 l-25 -23 17 27 c16 25 16
27 0 21 -11 -5 -14 -3 -8 6 6 10 3 11 -14 1 -12 -6 -24 -17 -26 -23 -12 -41
-14 -67 -5 -67 5 0 10 7 10 15 0 8 5 15 11 15 5 0 2 -14 -8 -32 -10 -18 -19
-35 -20 -37 -1 -2 -9 4 -17 12 -12 12 -13 17 -3 21 6 3 0 4 -15 2 -15 -1 -25
1 -22 5 3 5 1 9 -4 9 -16 0 -31 67 -18 80 6 6 -5 3 -24 -9 -21 -12 -40 -17
-48 -12 -10 6 -8 10 7 14 12 3 21 10 21 16 0 7 -8 7 -22 2 -13 -5 -23 -13 -22
-20 1 -6 2 -21 3 -33 1 -20 2 -20 19 -5 26 24 33 21 22 -9 -14 -35 -13 -44 6
-44 8 0 13 -4 10 -9 -3 -5 1 -11 9 -15 8 -3 15 -13 15 -21 0 -9 5 -13 10 -10
6 3 10 -1 10 -9 0 -9 5 -16 12 -16 6 0 9 -2 6 -5 -9 -9 -61 17 -85 43 -31 31
-28 15 9 -48 5 -8 11 -23 14 -32 4 -10 10 -18 14 -18 7 0 43 -27 73 -56 9 -10
17 -23 17 -31 0 -7 4 -13 9 -13 5 0 12 -9 16 -19 6 -18 40 -38 58 -33 4 1 7
-3 7 -9 0 -6 16 -9 38 -7 25 2 37 8 37 18 0 10 -8 14 -24 12 -21 -2 -22 0 -10
14 15 18 20 66 7 58 -4 -3 -8 -1 -8 5 0 5 5 13 10 16 6 3 10 15 10 26 0 10 5
19 11 19 13 0 40 26 38 37 -5 18 14 63 26 63 8 0 11 8 8 20 -3 12 1 22 10 26
9 3 13 12 10 22 -5 11 -2 14 10 9 8 -3 21 1 27 8 7 8 16 13 20 10 5 -3 13 9
19 25 9 27 19 35 37 28 3 -2 14 13 23 32 14 29 22 35 49 35 27 0 35 6 50 35 9
19 27 39 38 45 12 6 30 17 39 25 10 8 36 20 59 27 23 6 60 17 82 24 39 12 46
11 98 -16 68 -34 120 -81 112 -101 -3 -8 -1 -14 5 -14 13 0 33 -19 48 -48 6
-12 20 -22 30 -22 11 0 21 -9 24 -21 3 -12 10 -18 15 -15 5 3 15 0 21 -8 8
-10 8 -16 -3 -25 -8 -7 -12 -19 -9 -27 4 -11 9 -12 18 -4 9 8 15 8 20 0 3 -5
1 -10 -5 -10 -7 0 -10 -6 -7 -14 8 -21 -2 -26 -29 -16 -34 13 -30 4 6 -15 28
-14 34 -13 31 8 -2 13 11 8 46 -19 38 -29 43 -44 11 -38 l-23 5 22 -12 c13 -7
25 -20 28 -30 4 -11 10 -19 14 -19 13 0 32 26 24 33 -3 4 -3 7 0 7 4 0 18 -23
33 -51 21 -43 23 -51 8 -45 -14 5 -15 4 -4 -9 7 -8 16 -13 19 -10 4 2 8 -1 8
-8 0 -7 11 -30 24 -52 13 -22 24 -44 24 -50 0 -5 4 -24 8 -41 6 -22 3 -44 -8
-69 -8 -21 -14 -40 -12 -42 6 -6 37 8 37 17 0 4 11 5 23 3 14 -3 31 2 39 11 9
8 19 12 23 8 5 -4 5 -1 1 6 -4 7 -1 15 8 18 9 3 14 9 12 13 -2 3 2 15 10 26 8
10 14 15 14 11 0 -5 14 8 30 29 17 21 30 34 30 29 1 -5 8 3 16 19 8 15 19 27
25 27 6 0 8 9 4 21 -5 15 -4 19 4 15 6 -4 11 -2 11 4 0 6 5 8 10 5 6 -3 10 -2
10 3 0 4 8 17 18 28 9 10 24 28 32 38 14 18 14 19 -10 6 -23 -12 -24 -11 -9 5
15 15 15 20 -1 53 -22 45 -55 76 -70 67 -5 -3 -8 -11 -5 -16 3 -5 -1 -6 -10
-2 -13 5 -14 7 -3 14 8 6 2 9 -21 9 -32 0 -33 -1 -27 -30 3 -16 8 -45 11 -62
l5 -33 -11 30 c-6 17 -11 36 -11 43 -1 14 -18 17 -18 2 0 -5 -6 -7 -12 -5 -13
5 -41 -42 -33 -54 2 -4 -4 -7 -13 -8 -9 -1 -28 -5 -42 -8 -14 -4 -39 -1 -55 6
-17 7 -33 12 -37 11 -5 -1 -8 2 -8 6 0 5 -21 19 -46 31 -27 14 -43 28 -40 36
5 14 -19 54 -46 73 -23 17 -49 67 -40 77 4 5 2 5 -4 2 -15 -8 -65 42 -106 105
-16 27 -34 48 -38 48 -5 0 -24 15 -43 33 -19 19 -48 37 -65 40 -36 7 -66 34
-70 62 -11 87 -10 99 13 111 13 7 42 15 64 19 31 5 41 11 41 26 0 12 -7 19
-20 19 -11 0 -20 5 -20 10 0 6 4 10 8 10 5 0 9 6 10 13 0 6 2 21 4 31 4 26
-55 45 -83 28 -10 -7 -21 -12 -25 -12 -9 0 7 44 24 63 8 9 20 27 26 38 14 28
28 28 42 0 18 -35 56 -71 75 -71 9 0 19 -5 21 -12 6 -17 28 0 28 23 0 12 -7
19 -20 19 -11 0 -20 4 -20 10 0 6 -5 9 -11 8 -18 -5 -19 35 -1 52 15 15 18 14
39 -8 13 -14 23 -30 23 -36 0 -6 5 -4 10 4 5 8 10 10 10 3 0 -16 50 8 50 25 0
6 5 12 11 12 6 0 8 9 4 20 -5 17 -3 19 17 11 12 -4 25 -19 28 -32 6 -23 6 -23
14 6 5 22 3 32 -8 41 -9 6 -16 16 -16 21 0 15 -29 37 -37 29 -4 -4 -1 -11 6
-15 7 -5 10 -14 7 -20 -11 -16 -26 -13 -20 4 4 8 1 15 -6 15 -6 0 -9 4 -5 9 3
5 -7 19 -22 31 -16 12 -29 17 -31 11 -2 -6 -12 -11 -22 -11 -10 0 -21 -6 -23
-12 -3 -7 -6 0 -6 16 -1 25 -4 27 -23 22 -13 -4 -34 -9 -48 -11 -21 -4 -22 -3
-7 5 9 6 17 15 17 20 0 6 -8 10 -17 10 -15 0 -16 -2 -3 -10 13 -8 12 -10 -2
-10 -10 0 -18 5 -18 11 0 5 -5 7 -10 4 -12 -7 -40 12 -40 26 0 5 8 9 18 9 18
1 52 22 52 34 0 4 -9 2 -20 -4 -11 -6 -24 -8 -29 -5 -5 3 -11 0 -13 -6 -2 -6
-14 -2 -30 10 -14 12 -32 21 -40 20 -10 0 -10 -2 0 -6z"/>
<path d="M4807 8013 c-5 -7 -2 -48 3 -48 1 0 2 -33 3 -72 1 -56 4 -73 15 -73
11 0 12 -3 4 -13 -7 -8 -7 -18 -2 -27 5 -8 7 -17 4 -21 -2 -5 5 -6 16 -4 14 3
20 -1 20 -16 0 -10 5 -18 12 -16 6 1 16 -11 22 -28 6 -16 11 -31 12 -33 0 -1
9 0 18 4 14 5 14 9 4 22 -11 13 -10 15 6 9 17 -7 17 -6 5 10 -12 16 -11 15 16
-1 30 -19 30 -19 15 0 -8 10 -19 22 -24 25 -4 4 -4 15 2 25 8 15 6 22 -16 36
-19 13 -22 18 -10 18 9 0 18 -6 21 -12 2 -7 7 -10 11 -7 4 4 0 14 -9 23 -15
14 -15 16 -1 16 9 0 16 -7 16 -15 0 -8 5 -15 11 -15 5 0 7 -4 4 -10 -3 -5 5
-15 19 -21 16 -8 22 -17 19 -27 -4 -10 -2 -13 5 -8 6 4 10 20 8 36 -2 22 0 27
13 23 14 -4 14 -3 1 6 -13 9 -13 12 -1 20 11 7 11 10 -2 17 -8 5 -14 20 -13
33 0 13 -5 26 -13 29 -8 3 -11 0 -7 -7 9 -14 1 -14 -27 0 -19 9 -19 8 3 -11
14 -12 19 -19 13 -15 -7 3 -13 1 -13 -5 0 -6 11 -15 25 -22 13 -6 22 -15 19
-20 -3 -5 -12 -4 -20 3 -8 6 -14 8 -14 3 0 -5 -5 -1 -11 8 -11 20 -67 17 -80
-4 -7 -10 -9 -9 -9 5 0 9 -5 17 -12 17 -6 0 -9 3 -5 6 3 4 -1 21 -10 38 -10
17 -16 34 -15 39 1 4 -7 7 -18 7 -13 0 -18 5 -14 15 4 8 11 12 16 9 6 -4 6 1
-1 12 -21 38 -29 46 -34 37z"/>
<path d="M5040 7002 c-13 -9 -21 -12 -17 -5 5 7 1 9 -12 6 -21 -5 -21 -29 -1
-78 7 -16 14 -48 15 -70 2 -22 1 -30 -1 -17 -3 12 -9 22 -14 22 -5 0 -14 10
-21 21 -8 15 -8 19 0 15 15 -9 13 12 -4 49 l-13 30 3 -33 c2 -18 0 -30 -6 -26
-5 3 -7 10 -4 15 3 5 0 6 -8 3 -16 -6 -29 -64 -15 -64 4 0 8 -4 8 -10 0 -5 -4
-10 -10 -10 -5 0 -30 -13 -55 -29 -35 -22 -42 -30 -28 -33 13 -3 8 -8 -18 -17
-19 -8 -40 -21 -45 -31 -5 -9 -18 -34 -29 -56 -11 -21 -23 -41 -26 -44 -8 -8
-22 -43 -24 -62 -3 -22 30 -24 51 -3 9 9 34 15 62 15 43 1 147 37 112 39 -13
1 -13 2 0 11 12 8 12 10 -3 16 -9 3 -17 11 -17 17 0 6 3 7 6 4 4 -4 20 3 37
15 24 17 29 19 24 6 -3 -9 -1 -19 6 -21 7 -2 9 -8 5 -12 -4 -4 -15 -2 -23 5
-12 10 -19 10 -27 2 -9 -9 -8 -12 6 -12 12 0 16 -5 12 -15 -4 -13 -2 -14 14
-5 27 14 25 0 -3 -25 -13 -11 -17 -16 -10 -12 6 5 18 5 24 1 8 -5 9 -3 4 6 -5
9 -4 11 3 6 7 -4 12 -14 12 -22 0 -23 -31 -65 -43 -57 -6 4 -8 0 -4 -10 3 -10
4 -24 1 -32 -5 -12 -9 -13 -20 -4 -8 7 -17 9 -21 6 -3 -4 -13 -1 -21 6 -13 9
-14 9 -8 0 4 -8 2 -14 -6 -14 -7 -1 2 -4 21 -8 33 -6 34 -7 17 -23 -17 -17
-16 -18 6 -19 18 -1 16 -3 -12 -13 -19 -6 -45 -17 -57 -24 -12 -6 -28 -12 -35
-12 -21 0 -41 -17 -34 -29 5 -8 16 -6 37 5 35 18 48 12 28 -13 -12 -14 -10
-14 14 2 24 16 30 16 38 4 6 -9 12 -10 17 -4 4 6 14 16 23 22 13 10 16 10 16
-2 0 -8 -4 -12 -8 -9 -4 2 -13 -4 -18 -15 -15 -27 -14 -36 4 -21 8 6 19 9 25
5 5 -3 13 1 16 10 4 8 15 20 26 26 17 9 16 5 -6 -24 -19 -25 -23 -35 -12 -33
9 1 19 5 22 9 4 4 14 7 23 7 14 -1 13 -2 -1 -11 -10 -5 -23 -20 -29 -32 -11
-21 -10 -21 16 3 16 14 25 19 21 13 -9 -16 -16 -53 -11 -53 11 0 45 36 45 47
0 7 7 13 15 13 12 0 14 -7 9 -26 -5 -19 -4 -25 5 -20 6 4 11 16 11 26 0 25 17
35 24 13 3 -10 3 2 1 27 l-4 45 23 -60 c16 -41 29 -60 40 -59 9 1 16 -2 16 -7
0 -5 -7 -9 -15 -9 -8 0 -15 -7 -15 -15 0 -11 7 -14 24 -11 14 3 30 -2 37 -10
6 -8 8 -14 3 -14 -5 0 0 -7 10 -15 17 -13 17 -15 3 -15 -9 0 -23 10 -31 22
-10 14 -16 17 -16 9 0 -8 8 -23 18 -34 16 -18 16 -19 -3 -17 -36 4 -45 0 -45
-17 0 -15 2 -16 10 -3 7 11 8 5 4 -19 -5 -23 -3 -36 7 -41 11 -7 9 -13 -6 -31
-16 -18 -11 -16 20 6 27 20 34 23 23 9 -19 -22 -24 -44 -9 -44 5 0 24 12 43
26 28 22 27 21 -4 -9 -35 -32 -51 -56 -28 -42 17 11 32 -5 19 -21 -9 -11 -8
-14 2 -14 8 0 36 -12 63 -26 26 -14 45 -21 42 -15 -4 6 -22 18 -41 27 -35 16
-46 34 -22 34 8 0 7 4 -3 10 -9 6 -10 10 -3 10 6 0 15 -5 19 -11 4 -8 9 -7 16
2 7 11 11 11 15 2 7 -19 23 -16 16 3 -3 9 -19 22 -36 29 l-29 12 35 22 c19 11
39 21 45 21 6 0 13 6 15 13 4 10 6 10 6 0 1 -7 9 -13 18 -13 13 0 14 3 5 12
-9 9 -8 16 6 31 16 19 16 20 -5 8 -14 -7 -24 -8 -28 -1 -3 5 -4 11 -1 11 16 4
26 7 31 9 3 1 9 3 14 4 19 2 21 13 6 26 -8 7 -15 20 -15 29 0 9 3 12 8 6 4 -5
15 -11 24 -11 21 -2 13 23 -13 36 -24 13 -38 12 -19 -1 13 -9 12 -10 -2 -5
-10 3 -18 1 -18 -4 0 -6 -4 -10 -8 -10 -5 0 -9 7 -9 15 0 8 4 12 9 9 11 -7 10
3 -4 25 -11 18 -13 18 -24 3 -11 -15 -12 -14 -7 7 4 17 3 22 -6 17 -6 -4 -11
-4 -10 1 4 22 -3 23 -30 4 l-29 -21 -11 32 c-6 17 -9 33 -7 36 3 2 8 -7 11
-21 5 -19 11 -24 23 -20 10 4 20 11 23 16 4 5 15 5 27 -2 18 -10 19 -9 9 13
-7 14 -15 22 -19 20 -10 -6 -10 10 -1 20 11 10 12 37 2 30 -5 -3 -12 2 -15 10
-3 9 -11 13 -17 9 -6 -4 -7 -1 -2 7 4 7 2 16 -6 21 -10 6 -10 9 -2 9 10 0 10
6 1 25 -6 13 -14 22 -19 20 -4 -3 -18 -1 -31 4 -17 8 -19 10 -5 10 14 1 16 5
8 20 -6 10 -7 22 -3 26 4 5 1 4 -7 0 -11 -6 -13 -4 -8 8 3 9 3 18 -1 21 -12 7
-52 -13 -52 -26 0 -9 3 -9 12 0 14 14 28 16 28 3 0 -8 -41 -24 -65 -25 -16 -1
-25 -20 -13 -27 11 -7 69 18 79 34 4 5 9 5 13 -2 4 -6 2 -11 -5 -11 -8 0 -10
-12 -6 -37 4 -22 3 -32 -2 -25 -5 9 -10 -3 -13 -33 -3 -26 -10 -51 -15 -56
-10 -10 0 82 12 114 4 10 3 17 -4 17 -7 0 -14 -6 -17 -14 -3 -8 -12 -12 -20
-9 -8 3 -14 -1 -14 -8 -1 -9 -4 -8 -11 4 -12 21 -23 88 -11 70 5 -9 15 -3 32
19 14 17 33 39 43 49 18 21 16 22 -35 22 -21 0 -23 8 -6 25 10 10 10 15 1 20
-13 8 -12 29 0 50 5 7 3 12 -7 12 -10 0 -13 -7 -11 -20 3 -15 -3 -24 -20 -30
-25 -10 -41 -28 -31 -37 3 -4 14 1 24 10 21 19 43 24 24 5 -13 -13 3 -52 19
-43 5 4 9 -1 9 -10 0 -12 -6 -15 -20 -10 -14 4 -18 2 -15 -7 2 -7 -8 -22 -23
-33 -20 -14 -24 -15 -14 -2 8 9 12 22 9 29 -2 7 2 21 11 31 8 9 12 20 8 25 -4
4 -13 -1 -20 -11 -16 -21 -30 -23 -22 -2 3 8 2 15 -3 15 -5 0 -12 11 -15 25
-7 26 -20 32 -31 15 -3 -5 0 -10 7 -10 17 0 41 -72 26 -81 -5 -3 -9 -9 -9 -13
1 -3 -1 -6 -4 -6 -3 0 -8 0 -12 0 -4 0 -2 5 5 12 15 15 15 45 0 54 -6 4 -19
-2 -29 -15 l-17 -21 -6 27 c-3 16 -8 49 -11 74 -5 41 -3 47 15 52 14 3 18 10
14 21 -4 11 3 25 19 40 14 13 27 31 28 41 4 16 7 15 36 -9 23 -19 30 -32 26
-49 -5 -21 -5 -22 10 -2 13 16 17 17 31 6 9 -7 16 -11 16 -7 0 7 -38 46 -45
46 -3 0 -8 0 -12 0 -5 0 -2 4 6 9 10 7 11 13 2 27 -10 18 -10 18 -11 -3 0 -26
-8 -28 -32 -9 -21 15 -25 52 -5 40 7 -5 6 -1 -3 10 -13 17 -14 17 -20 0 -5
-12 -9 -14 -14 -6 -4 7 4 22 20 37 15 14 22 25 15 25 -6 0 -10 3 -10 8 6 35
-12 41 -51 14z"/>
<path d="M3422 6788 c-15 -15 -16 -32 -2 -23 6 3 10 -1 10 -10 0 -9 3 -14 8
-12 4 3 18 0 32 -6 41 -17 98 -18 114 -2 17 17 36 20 36 5 0 -5 9 -10 20 -10
11 0 20 -4 20 -8 0 -4 18 -19 40 -32 22 -14 40 -28 40 -32 0 -5 6 -8 14 -8 8
0 17 -6 19 -12 3 -7 6 13 6 44 1 55 0 58 -26 64 -16 4 -31 12 -35 18 -6 9 -89
15 -265 18 -13 0 -20 4 -17 9 8 13 0 11 -14 -3z"/>
<path d="M2750 5893 c-19 -20 -27 -34 -17 -30 40 16 52 19 39 10 -7 -6 -10
-18 -6 -29 5 -16 4 -16 -5 -4 -9 12 -11 13 -11 1 0 -8 -8 -24 -17 -35 -17 -20
-17 -20 0 -6 22 17 57 24 57 11 0 -5 -10 -16 -22 -24 l-23 -16 25 6 c14 3 32
11 40 17 13 9 13 9 3 -5 -7 -9 -10 -19 -6 -23 4 -3 -2 -13 -13 -21 -19 -15
-19 -15 1 -8 18 6 19 5 5 -13 -14 -19 -14 -19 7 -1 12 10 30 17 40 14 17 -4
17 -5 0 -6 -10 0 -15 -6 -12 -11 4 -6 11 -8 16 -5 5 4 9 2 9 -4 0 -5 -4 -13
-10 -16 -5 -3 -10 -11 -10 -16 0 -6 5 -7 10 -4 13 8 42 -14 35 -25 -3 -4 2
-10 10 -14 8 -3 17 -1 20 4 8 13 35 13 35 0 0 -5 -3 -9 -8 -7 -4 1 -19 -9 -32
-22 -24 -22 -24 -23 -2 -12 12 6 22 9 22 5 0 -3 8 0 17 7 11 9 14 10 9 2 -5
-10 2 -11 26 -8 32 5 32 5 8 -6 -14 -7 -29 -11 -35 -10 -5 1 -2 -5 7 -12 10
-8 15 -17 11 -20 -3 -4 1 -7 10 -7 20 0 23 16 5 23 -8 2 -9 8 -4 13 5 5 11 4
13 -3 6 -18 23 -16 23 2 0 8 8 15 18 16 10 0 5 5 -13 11 -25 9 -27 12 -11 18
17 6 17 7 0 20 -11 9 -15 10 -10 3 4 -7 3 -13 -1 -13 -12 0 -33 22 -33 35 0 5
5 3 10 -5 8 -13 10 -13 10 1 0 9 -7 19 -15 23 -8 3 -15 14 -15 25 0 11 -4 23
-10 26 -6 3 -7 -1 -4 -12 5 -17 5 -17 -6 0 -6 9 -8 22 -4 29 4 7 3 8 -4 4 -7
-4 -12 -2 -12 5 0 7 -3 9 -6 6 -4 -4 -20 3 -35 14 -16 11 -29 15 -29 9 0 -6
-4 -9 -9 -6 -4 3 -7 18 -5 33 3 18 1 22 -3 13 -5 -9 -14 -15 -21 -15 -17 0
-33 27 -23 40 4 5 5 23 2 38 l-6 28 -35 -38z"/>
<path d="M5287 5366 c-13 -19 -24 -24 -51 -22 -19 2 -40 0 -46 -4 -6 -4 6 -7
26 -8 46 -2 59 -12 15 -12 -19 0 -30 -4 -26 -10 3 -5 0 -8 -7 -6 -7 2 -29 7
-48 10 -33 6 -33 6 -15 -10 11 -8 14 -13 8 -9 -7 3 -13 1 -13 -5 0 -6 -4 -8
-10 -5 -5 3 -10 1 -10 -4 0 -6 18 -14 40 -17 22 -4 43 -10 46 -15 3 -5 -3 -6
-13 -2 -10 3 -15 3 -11 -1 3 -4 17 -9 30 -11 12 -1 32 -6 43 -11 19 -7 19 -7
3 13 -20 21 -24 38 -8 28 6 -3 10 -1 10 4 0 6 -5 11 -12 11 -6 0 -8 3 -5 6 10
10 38 -17 30 -29 -3 -6 -1 -7 6 -3 6 4 9 11 6 16 -3 4 2 11 11 14 23 9 31 7
15 -3 -9 -6 -4 -10 18 -13 33 -5 31 3 -12 46 -21 21 -15 35 7 17 12 -10 23
-10 51 0 36 13 36 13 14 30 -21 16 -21 16 12 11 19 -2 32 -2 29 1 -3 3 -30 8
-61 11 -52 6 -58 4 -72 -18z"/>
<path d="M3214 4353 c6 -11 -48 -30 -69 -24 -5 1 -7 -1 -2 -5 4 -4 -1 -16 -10
-28 -16 -17 -13 -16 17 4 l35 23 -29 -31 c-22 -24 -31 -28 -41 -19 -11 10 -10
16 3 31 16 18 16 18 -3 8 -11 -6 -26 -20 -34 -31 -8 -11 -19 -18 -23 -15 -5 3
-15 0 -23 -6 -8 -6 -18 -9 -23 -6 -6 3 -15 -1 -22 -10 -10 -12 -11 -17 -1 -27
10 -9 15 -8 27 7 8 11 14 16 15 10 0 -5 5 0 10 11 8 18 9 18 6 1 -3 -25 -58
-66 -64 -48 -5 13 -23 7 -23 -9 0 -6 5 -7 10 -4 6 3 10 1 10 -5 0 -6 5 -8 13
-4 9 6 8 3 -1 -8 -8 -10 -20 -14 -29 -11 -12 5 -15 2 -10 -10 4 -10 1 -17 -6
-17 -8 0 -7 -4 3 -10 13 -9 13 -11 0 -20 -21 -14 5 -13 31 0 12 7 19 7 19 1 0
-5 -9 -13 -21 -16 -16 -5 -18 -10 -8 -21 6 -8 8 -14 3 -15 -5 -1 2 -5 16 -9
l25 -8 -24 -1 -24 -1 23 -20 c22 -19 22 -20 2 -20 -15 0 -19 -5 -15 -20 3 -11
0 -20 -6 -20 -6 0 -11 -7 -11 -15 0 -8 5 -15 10 -15 6 0 10 -5 10 -11 0 -6 -7
-9 -15 -5 -13 5 -13 2 1 -20 16 -23 18 -24 35 -8 11 10 19 23 19 31 0 7 4 13
9 13 5 0 17 17 26 38 10 20 43 63 74 94 31 32 68 72 84 88 15 17 27 28 27 24
0 -4 9 1 20 11 11 10 20 26 20 37 0 10 5 18 10 18 6 0 10 11 10 25 0 15 -6 25
-14 25 -9 0 -13 7 -11 19 2 14 -1 18 -10 15 -10 -4 -13 1 -10 17 3 17 2 20 -7
11 -8 -8 -15 -7 -25 6 -8 9 -12 12 -9 5z"/>
<path d="M4560 4282 c0 -8 -5 -10 -12 -6 -8 5 -8 2 1 -10 8 -9 10 -16 5 -15
-5 1 -16 1 -24 0 -13 -1 -13 -3 -1 -10 12 -8 12 -12 -2 -25 -10 -10 -18 -12
-22 -6 -3 5 -1 10 6 10 15 0 4 13 -14 16 -7 2 -23 6 -37 9 -22 6 -23 5 -9 -7
18 -15 14 -38 -7 -38 -17 0 -20 -75 -4 -85 6 -4 8 -10 6 -14 -3 -4 -1 -23 3
-43 5 -21 4 -43 -2 -53 -7 -14 -6 -16 3 -10 10 6 12 2 8 -13 -4 -14 -2 -20 5
-15 6 4 8 0 4 -10 -4 -10 -2 -17 5 -17 7 0 6 -5 -2 -15 -7 -8 -9 -15 -6 -15 4
0 2 -9 -4 -20 -6 -11 -7 -20 -2 -20 4 0 8 -16 8 -35 0 -23 -3 -30 -9 -22 -6 8
-7 4 -4 -10 3 -13 1 -25 -4 -28 -4 -3 -6 -12 -3 -20 4 -8 10 -12 15 -9 5 3 9
-2 9 -11 0 -9 -4 -14 -9 -11 -5 3 -11 -1 -14 -9 -4 -10 -1 -12 11 -8 13 5 14
3 5 -7 -6 -7 -9 -19 -6 -28 4 -10 2 -13 -5 -8 -7 4 -12 2 -12 -3 0 -6 5 -11
11 -11 5 0 7 -5 4 -11 -4 -6 -13 -8 -21 -5 -7 3 -16 1 -19 -4 -4 -6 1 -10 9
-10 12 0 16 -10 15 -37 l-1 -38 -9 33 c-13 43 -23 41 -14 -4 4 -25 3 -34 -5
-29 -7 5 -9 -2 -4 -22 7 -26 6 -27 -10 -14 -9 8 -15 20 -12 28 3 8 1 11 -4 8
-6 -3 -10 -13 -10 -21 0 -8 -4 -13 -9 -10 -5 3 -7 16 -3 28 3 14 2 19 -6 14
-7 -4 -12 -14 -12 -22 0 -8 -4 -14 -10 -14 -5 0 -10 -4 -10 -10 0 -8 -42 -76
-56 -90 -9 -8 15 49 32 77 l16 28 -21 -25 c-25 -31 -58 -98 -66 -136 -5 -27
-5 -28 5 -5 6 13 13 21 16 18 8 -8 -26 -77 -36 -74 -5 1 -15 -7 -24 -18 l-15
-20 3 20 c1 11 12 24 24 30 22 10 30 25 12 25 -5 0 -6 8 -3 18 6 15 5 15 -10
3 -21 -17 -21 -12 -1 28 13 25 13 35 4 46 -8 10 -9 15 -2 15 14 0 24 -33 17
-56 -3 -10 5 4 19 33 13 28 27 62 31 75 6 19 2 17 -24 -12 -16 -19 -30 -30
-31 -24 0 7 19 31 43 55 23 23 36 39 29 35 -10 -6 -11 -1 -7 21 5 22 1 19 -16
-14 -12 -24 -26 -40 -32 -36 -6 3 -7 1 -3 -5 4 -7 3 -12 -2 -12 -11 0 -38 -60
-34 -74 2 -6 -4 -29 -13 -53 -9 -23 -13 -48 -9 -54 4 -7 3 -9 -3 -6 -6 4 -13
-10 -17 -34 -3 -22 -11 -48 -18 -58 -8 -13 -8 -23 1 -37 7 -11 11 -13 8 -3 -3
8 1 25 7 38 11 19 12 15 10 -36 -3 -57 -10 -106 -19 -130 -2 -7 -1 -13 4 -13
5 0 11 17 15 38 3 20 15 48 26 62 15 19 10 -3 -20 -90 -22 -63 -40 -124 -39
-135 l0 -20 9 20 c8 18 9 17 9 -7 1 -16 6 -28 11 -28 6 0 10 -7 10 -15 0 -18
16 -20 24 -2 3 6 3 -5 0 -26 -3 -22 -1 -37 4 -33 5 3 6 -14 2 -41 -7 -43 -6
-45 8 -27 14 19 15 19 7 -1 -4 -11 -9 -29 -12 -40 -4 -17 -3 -18 7 -5 9 12 11
7 8 -22 -3 -30 -1 -38 12 -38 24 0 32 -11 19 -26 -6 -7 -9 -21 -6 -31 4 -14 5
-14 6 4 0 12 6 25 11 28 6 3 10 15 10 26 0 18 2 19 15 6 10 -10 13 -27 10 -49
l-5 -33 12 32 c21 51 25 47 14 -13 -8 -49 -11 -54 -23 -39 -10 14 -13 15 -17
4 -12 -37 -16 -41 -11 -10 4 27 2 31 -8 22 -8 -6 -17 -7 -21 -3 -4 4 -7 3 -6
-3 4 -19 -12 -54 -27 -59 -8 -3 -11 -1 -8 4 3 6 1 10 -6 10 -6 0 -9 -8 -6 -19
2 -10 0 -27 -6 -37 -10 -18 -10 -18 17 0 27 17 28 17 22 -2 -5 -16 -2 -19 16
-18 20 1 23 -4 21 -29 -2 -28 -1 -29 12 -11 8 11 15 16 15 12 0 -5 7 -3 15 4
18 15 20 0 3 -20 -7 -8 -3 -6 10 4 22 19 22 19 23 -5 0 -22 1 -23 9 -4 5 11 9
15 9 9 1 -7 8 -15 17 -18 8 -3 12 -2 9 4 -3 6 1 20 11 32 12 17 15 18 10 5 -3
-10 -6 -29 -6 -42 0 -13 -6 -30 -13 -37 -7 -7 -15 -17 -18 -23 -2 -5 -17 -10
-32 -10 -15 0 -32 -7 -37 -15 -7 -10 -8 -3 -5 25 3 30 3 33 -3 11 -8 -35 -33
-49 -26 -14 5 22 5 22 -7 3 -7 -11 -21 -29 -31 -39 -21 -24 -24 -48 -4 -40 11
4 13 0 9 -15 -3 -12 -9 -24 -14 -27 -5 -3 -9 -10 -9 -15 0 -6 14 0 31 12 l31
22 -12 -23 c-11 -21 -11 -22 14 -18 18 4 26 1 26 -8 0 -9 11 -14 30 -14 17 0
30 -4 30 -10 0 -17 22 -11 47 12 31 29 29 10 -3 -27 -14 -16 -33 -29 -42 -27
-15 2 -15 1 -2 -7 12 -8 23 -2 52 29 21 22 39 40 40 40 2 0 4 -11 4 -25 1 -13
-1 -23 -5 -22 -3 1 -28 -21 -55 -48 -27 -28 -42 -41 -33 -29 20 24 22 38 5 28
-19 -12 -48 -12 -48 -1 0 6 -8 3 -18 -6 -17 -16 -19 -16 -19 0 0 10 4 25 10
33 5 8 -7 -3 -27 -25 -24 -26 -33 -32 -26 -16 19 39 -4 48 -30 11 -12 -17 -24
-29 -27 -26 -3 2 2 15 11 28 19 27 22 50 3 24 -7 -9 -18 -16 -24 -14 -6 2 -19
-6 -28 -17 -16 -19 -16 -19 -2 5 9 14 20 24 25 23 6 -1 12 3 15 10 3 8 -4 13
-18 13 -13 0 -21 -4 -19 -8 3 -4 1 -8 -4 -8 -6 0 -20 -16 -31 -36 -12 -20 -25
-34 -28 -30 -3 3 1 14 9 23 8 10 18 27 22 37 5 16 4 17 -9 6 -18 -15 -19 -7
-4 23 12 22 12 22 -10 3 -11 -11 -21 -25 -21 -32 0 -7 -5 -16 -10 -19 -7 -4
-9 2 -5 18 8 32 -12 74 -28 58 -6 -6 -17 -11 -24 -11 -10 0 -9 7 4 28 17 26
17 27 -2 12 -17 -14 -18 -13 -12 4 6 16 5 17 -8 6 -8 -7 -15 -9 -15 -5 0 4 -7
1 -17 -6 -15 -13 -15 -12 -4 9 8 15 9 28 2 40 -9 15 -11 14 -21 -8 l-10 -25 3
28 c4 22 2 25 -9 16 -9 -8 -14 -8 -14 -1 0 16 -39 25 -54 13 -7 -6 -16 -7 -21
-3 -4 4 -2 -4 4 -16 7 -13 10 -26 8 -29 -3 -2 -11 5 -17 17 -6 12 -14 19 -17
16 -4 -3 -12 -1 -18 4 -9 8 -14 6 -19 -5 -3 -9 -2 -14 3 -10 5 3 16 -8 24 -25
11 -20 12 -32 5 -36 -6 -4 -8 -2 -4 4 6 10 -30 28 -48 24 -4 -2 -14 5 -22 15
-12 16 -13 16 -12 -10 2 -20 15 -39 46 -64 23 -19 48 -36 55 -37 20 -3 57 -32
50 -39 -3 -4 3 -7 15 -7 11 0 27 6 35 14 21 21 40 15 86 -27 23 -20 45 -37 50
-37 5 0 16 -3 24 -6 8 -3 22 3 31 12 17 16 17 16 14 -2 -5 -28 50 -28 82 0 14
11 19 14 13 6 -26 -29 -33 -28 150 -16 42 3 82 8 87 11 6 3 10 1 10 -5 0 -14
60 -10 85 7 27 18 32 17 37 -12 3 -13 2 -24 -1 -23 -25 3 -41 -4 -35 -14 4 -7
3 -8 -4 -4 -7 4 -17 4 -22 1 -13 -8 -114 -16 -187 -15 -28 1 -54 -4 -58 -10
-3 -6 -12 -7 -18 -4 -8 5 -9 4 -2 -4 18 -20 305 -13 330 8 6 5 14 8 20 7 5 -1
14 16 19 38 13 58 15 321 3 385 -5 30 -11 123 -12 205 -2 83 -5 215 -8 295 -7
170 9 267 54 340 16 26 29 54 29 63 0 8 12 29 26 46 14 17 22 36 18 42 -4 7
-3 9 3 6 10 -6 43 33 43 50 0 4 -4 3 -8 -4 -4 -6 -14 -13 -21 -15 -21 -5 -53
-37 -46 -47 2 -5 -4 -11 -15 -14 -11 -3 -20 -11 -19 -19 0 -10 2 -10 6 0 2 6
9 12 15 12 5 0 0 -14 -12 -30 -12 -17 -26 -28 -31 -25 -5 4 -9 1 -9 -6 0 -7
-2 -10 -5 -7 -3 3 -1 16 4 29 9 21 10 22 11 4 0 -15 2 -17 9 -6 5 7 6 22 4 32
-3 11 1 21 11 25 9 3 16 11 16 17 0 7 -4 7 -12 -1 -17 -17 -28 -15 -21 5 5 12
3 14 -8 8 -7 -5 -4 4 9 20 25 31 22 46 -4 24 -16 -13 -16 -12 -6 8 7 12 17 25
22 28 6 4 8 11 5 16 -4 5 -1 9 4 9 6 0 11 7 11 16 0 8 -4 12 -10 9 -12 -7 -14
16 -2 31 4 5 0 1 -10 -8 -12 -13 -18 -15 -22 -6 -3 9 -8 8 -16 -4 -12 -20 -30
-24 -30 -7 0 5 5 7 10 4 6 -3 10 3 10 15 0 18 -3 19 -22 9 -21 -11 -22 -11 -8
5 8 10 15 23 17 30 1 6 5 22 9 36 l8 25 -30 -19 c-23 -15 -19 -8 16 28 26 27
37 44 26 40 -13 -5 -17 -4 -12 4 4 7 2 12 -4 12 -7 0 -10 -5 -8 -11 6 -19 -35
-60 -45 -46 -6 8 -7 6 -4 -5 7 -21 -3 -31 -19 -17 -10 8 -11 16 -3 30 6 12 6
19 0 19 -5 0 -12 -6 -14 -12 -3 -7 -3 1 -2 17 2 17 4 30 5 30 1 0 3 8 5 18 2
9 -1 14 -6 11 -6 -3 -3 10 5 30 8 20 11 36 7 36 -5 0 -6 11 -3 25 3 16 0 25
-8 25 -9 0 -10 3 -1 13 6 8 7 17 3 21 -4 4 -7 13 -7 19 -1 7 -6 11 -13 10 -22
-5 -13 15 10 20 18 5 19 8 8 22 -7 9 -9 15 -4 14 5 -1 18 -1 28 0 20 1 20 1 0
17 -18 15 -18 15 0 10 17 -6 17 -5 5 11 -12 15 -12 16 3 10 9 -3 18 -1 20 5 2
6 23 11 46 11 26 0 39 4 35 10 -4 6 -1 7 6 3 7 -5 10 -14 7 -22 -3 -9 0 -11
11 -7 12 5 15 2 10 -10 -3 -9 -2 -17 4 -17 6 0 7 -5 4 -10 -4 -6 -11 -8 -16
-5 -5 4 -9 1 -9 -4 0 -6 7 -11 15 -11 8 0 15 5 15 11 0 6 8 8 18 5 14 -5 13
-3 -3 10 -19 16 -19 16 9 10 24 -6 27 -4 22 9 -3 9 -6 19 -6 21 0 3 -5 2 -12
-2 -7 -4 -8 -3 -4 5 5 8 12 9 19 2 8 -6 17 -5 27 2 16 13 27 53 12 43 -5 -3
-18 4 -28 17 l-19 22 23 -19 c19 -17 22 -17 22 -3 0 10 5 17 11 17 5 0 7 -6 3
-12 -6 -10 -5 -10 8 0 13 10 13 20 5 58 -8 34 -13 41 -17 28 -6 -17 -8 -17
-14 4 -4 13 -10 21 -14 18 -3 -3 -12 3 -19 14 -8 11 -18 18 -23 15 -5 -3 -12
0 -16 6 -4 8 -3 9 4 5 7 -4 12 -2 12 3 0 16 -20 13 -26 -4 -8 -19 -21 -19 -21
0 0 8 4 12 9 9 4 -3 8 0 8 6 0 7 -6 10 -14 7 -7 -3 -19 0 -25 6 -6 6 -11 7
-11 3 0 -5 -7 -3 -15 4 -15 13 -21 2 -7 -16 4 -5 -5 4 -20 21 -15 16 -28 24
-28 17z"/>
<path d="M3245 4000 c3 -5 2 -10 -4 -10 -6 0 -8 -7 -5 -15 4 -11 -1 -15 -17
-16 -13 0 -19 -3 -12 -5 8 -4 9 -14 2 -36 -4 -17 -6 -35 -2 -41 3 -6 1 -7 -5
-3 -24 14 -22 -17 2 -39 29 -27 36 -47 9 -23 -10 9 -29 21 -43 27 -22 11 -23
11 -7 -2 9 -8 17 -22 17 -31 0 -10 4 -15 9 -11 5 3 12 1 16 -5 4 -6 -7 -10
-27 -10 -22 0 -28 3 -20 9 11 7 10 9 -3 14 -9 4 -13 3 -10 -3 3 -6 1 -10 -6
-10 -8 0 -9 -3 0 -14 9 -11 6 -12 -16 -8 -21 4 -25 2 -20 -12 4 -9 2 -16 -4
-16 -6 0 -8 -4 -4 -9 3 -6 -2 -14 -12 -20 -12 -6 -18 -22 -18 -48 0 -39 0 -39
-17 -19 -15 17 -17 18 -12 3 7 -20 -21 -57 -43 -57 -7 0 -13 -12 -14 -27 -1
-20 -3 -22 -6 -9 -3 12 -8 15 -12 8 -4 -8 -16 -3 -34 12 -24 21 -27 30 -23 63
8 56 30 140 39 149 4 4 7 19 6 33 0 24 -1 24 -13 -7 -6 -18 -15 -30 -19 -26
-4 4 -7 0 -7 -8 0 -9 -4 -18 -9 -20 -5 -1 -18 -30 -29 -63 -14 -42 -24 -60
-36 -59 -15 2 -20 -7 -17 -33 1 -6 -3 -14 -9 -18 -5 -3 -10 -16 -11 -28 0 -21
-1 -21 -9 -2 -7 17 -9 14 -10 -15 -1 -29 -3 -32 -10 -15 -5 11 -9 16 -9 11 -1
-5 -8 -3 -16 4 -17 14 -20 50 -4 50 6 0 8 -7 4 -17 -5 -14 -3 -15 6 -6 14 14
2 36 -16 29 -7 -2 -18 1 -24 7 -15 15 -13 -3 4 -33 8 -14 14 -36 14 -50 0 -19
-4 -15 -16 18 -8 23 -21 42 -28 42 -7 0 -16 8 -18 18 -4 13 -5 11 -6 -6 0 -12
-7 -21 -13 -20 -8 2 -14 -9 -16 -25 -4 -30 -22 -28 -22 3 0 10 -7 20 -15 24
-10 4 -15 -1 -15 -14 0 -13 -5 -18 -15 -14 -11 5 -15 -1 -15 -25 0 -20 -5 -31
-14 -31 -10 0 -16 -14 -18 -42 -2 -26 -8 -42 -15 -41 -6 1 -15 -16 -19 -40 -7
-38 -8 -40 -15 -17 -6 22 -7 21 -8 -11 -1 -20 -10 -58 -22 -83 -11 -26 -18
-54 -15 -63 3 -8 -1 -24 -9 -36 -8 -12 -15 -35 -14 -52 1 -27 2 -26 13 13 6
24 19 49 29 56 9 7 17 17 17 22 0 13 51 59 64 59 6 0 11 10 11 22 0 13 5 23
10 22 5 0 12 8 16 18 5 13 9 7 14 -24 4 -24 12 -43 18 -43 6 0 8 -3 5 -6 -4
-3 -2 -19 2 -35 5 -16 5 -31 0 -34 -5 -3 0 -15 10 -25 11 -11 20 -25 20 -32 0
-6 -7 -3 -16 8 -15 18 -15 18 -5 -3 11 -22 5 -57 -8 -49 -4 3 -8 -10 -9 -27
-2 -17 -6 -34 -10 -37 -8 -6 -12 -21 -19 -72 -3 -21 -10 -38 -15 -38 -6 0 -8
-11 -6 -25 3 -14 1 -22 -5 -18 -5 3 -7 -6 -3 -23 5 -29 9 -101 6 -119 -1 -5
-5 -1 -10 10 -8 18 -9 17 -9 -8 -1 -20 -5 -26 -13 -21 -7 4 -10 4 -6 0 3 -4 0
-23 -8 -41 -8 -19 -14 -48 -14 -65 0 -21 -4 -29 -12 -24 -8 5 -9 0 -5 -15 4
-17 2 -21 -9 -17 -8 3 -14 1 -14 -3 0 -5 5 -11 10 -13 6 -2 8 -21 4 -50 -4
-31 -11 -45 -18 -41 -7 4 -7 2 1 -7 7 -8 8 -22 2 -42 -4 -17 -6 -35 -3 -39 3
-5 1 -9 -4 -9 -11 0 -16 -54 -14 -144 1 -50 6 -75 19 -89 10 -11 12 -17 6 -13
-15 8 -18 -10 -3 -19 6 -3 7 -17 4 -30 -4 -16 2 -37 16 -60 12 -19 17 -35 11
-35 -6 0 -11 7 -11 15 0 8 -5 15 -10 15 -33 0 68 -142 111 -155 27 -9 41 -54
29 -95 -17 -60 -16 -62 44 -58 43 2 52 0 44 -10 -6 -7 -8 -15 -4 -19 3 -3 6
-2 6 4 0 6 16 11 35 11 38 0 47 -20 23 -48 -7 -8 -4 -7 8 3 24 20 48 23 38 5
-6 -10 -4 -10 7 0 20 18 33 15 18 -5 -13 -17 -13 -17 13 0 26 16 64 25 43 9
-16 -11 -15 -51 1 -45 8 3 11 10 7 16 -4 6 2 8 18 4 13 -4 37 -7 52 -7 16 0
26 -4 23 -9 -4 -5 4 -7 16 -3 15 4 19 2 13 -7 -5 -10 0 -9 21 1 37 17 104 12
104 -8 0 -8 -8 -14 -17 -14 -9 0 -14 -3 -10 -6 3 -3 31 2 62 11 32 9 60 14 63
11 3 -3 -2 -6 -11 -6 -9 0 -18 -4 -21 -8 -3 -5 9 -6 26 -4 28 4 59 26 119 84
10 9 20 14 23 11 3 -4 6 -2 6 4 0 7 33 11 86 12 47 1 94 5 103 10 9 6 35 12
57 15 55 7 192 34 234 45 19 5 48 12 64 16 15 3 26 8 23 11 -3 3 -22 1 -43 -5
-44 -12 -245 -24 -346 -21 -45 1 -68 -2 -68 -10 0 -7 -7 -5 -16 4 -8 9 -27 17
-42 17 -44 2 -69 6 -86 12 -8 3 -18 2 -21 -3 -3 -4 1 -11 7 -13 10 -4 10 -6 1
-6 -7 -1 -17 8 -23 19 -12 22 -36 27 -43 8 -4 -10 -6 -10 -6 0 -1 6 -8 12 -16
12 -9 0 -12 6 -9 15 4 10 0 15 -13 15 -11 0 -22 3 -26 6 -3 4 -24 8 -46 9 -55
4 -71 16 -40 28 13 6 31 9 39 8 8 0 -1 7 -20 18 -33 18 -33 19 -10 19 14 0 76
1 138 2 63 1 116 -1 119 -3 3 -3 16 -2 29 3 14 6 26 6 29 -1 9 -13 167 -9 162
5 -3 7 11 10 41 7 33 -2 43 0 37 9 -6 9 -3 9 13 1 12 -7 23 -7 26 -2 4 5 0 12
-6 14 -7 3 -3 6 9 6 57 2 71 27 19 33 -19 2 -33 1 -30 -3 3 -6 -54 -5 -66 1
-7 4 -22 7 -38 9 -7 0 -10 6 -7 11 6 10 -7 14 -32 11 -6 -1 -14 2 -17 7 -3 5
10 8 29 6 22 -1 33 1 29 8 -4 6 1 8 12 5 60 -17 69 -18 54 -8 -13 9 -12 11 5
12 14 0 9 6 -17 18 -48 22 -55 30 -23 24 31 -6 32 3 3 29 -13 11 -16 16 -8 12
8 -4 22 -13 32 -21 9 -8 31 -17 49 -20 l32 -5 -29 25 c-32 28 -45 28 -23 0 13
-17 13 -17 -6 -4 -11 8 -32 26 -47 40 -16 14 -28 21 -28 15 0 -5 -4 -3 -9 5
-5 8 -14 10 -21 6 -9 -6 -7 -12 10 -25 20 -15 20 -18 6 -23 -10 -4 -15 -3 -11
3 6 9 -36 33 -60 34 -5 1 -18 8 -28 16 -10 8 -20 13 -24 12 -3 -2 -10 2 -14
10 -7 10 -9 10 -9 -1 0 -8 12 -29 27 -45 16 -17 21 -25 13 -18 -18 15 -34 16
-24 0 4 -7 3 -8 -5 -4 -6 4 -8 13 -5 19 4 7 4 9 -1 5 -4 -4 -21 2 -37 13 -34
24 -101 110 -92 118 3 3 12 -3 20 -13 8 -11 14 -16 14 -11 0 5 14 -6 31 -25
17 -19 26 -27 19 -17 -13 17 -2 23 16 9 5 -4 3 -1 -6 6 -36 31 -109 82 -117
82 -4 0 -1 -4 7 -10 8 -5 11 -12 7 -16 -3 -4 -13 -2 -20 4 -8 7 -17 9 -20 5
-4 -3 -7 -1 -7 6 0 6 7 14 15 17 8 4 12 10 9 15 -3 5 1 9 8 9 7 0 19 -9 26
-20 7 -12 17 -18 22 -15 5 3 16 -5 24 -17 9 -12 16 -18 16 -12 0 6 -9 23 -21
38 -11 14 -17 31 -13 37 5 8 9 8 14 -1 5 -9 9 -9 14 -1 11 17 -24 26 -35 10
-8 -12 -11 -12 -19 1 -5 8 -10 11 -10 6 0 -18 -17 8 -24 37 -4 17 -3 26 3 23
5 -3 12 -1 14 4 3 6 4 5 3 -2 -4 -16 12 -48 24 -48 9 0 7 22 -6 54 -5 13 -4
17 4 12 8 -5 10 -2 6 8 -3 9 -11 13 -17 9 -5 -3 -7 -1 -3 5 3 6 2 13 -4 17 -6
4 -8 10 -6 13 2 4 -2 18 -9 31 l-13 24 -7 -22 c-4 -13 -1 -28 7 -38 11 -15 11
-16 -5 -10 -15 6 -17 3 -12 -14 5 -15 4 -19 -4 -15 -6 4 -11 13 -11 20 0 8 -7
19 -15 26 -8 7 -12 17 -9 22 3 5 3 21 -1 36 -5 19 -9 22 -15 13 -12 -20 -40
39 -40 86 0 27 -3 34 -10 23 -5 -8 -12 -11 -16 -7 -4 3 -1 13 5 21 7 8 10 20
6 26 -3 5 -2 10 2 10 12 0 33 -60 33 -95 0 -16 3 -25 6 -22 8 8 44 -31 44 -46
0 -6 3 -7 7 -4 3 4 1 18 -7 31 -7 14 -10 32 -6 42 7 18 16 15 20 -8 9 -41 19
-67 26 -63 9 6 -2 61 -19 93 -7 13 -10 28 -8 35 3 7 8 0 12 -16 9 -36 45 -57
59 -34 9 13 12 13 32 0 23 -15 23 -14 14 19 -13 44 -12 48 5 18 l14 -25 1 23
c0 13 4 20 10 17 6 -3 10 4 10 15 0 16 -5 20 -15 16 -11 -4 -15 2 -16 22 -1
24 -2 23 -9 -8 -7 -36 -11 -32 -26 25 -7 27 -9 23 -14 -30 -6 -52 -7 -54 -8
-17 -2 30 -6 42 -17 42 -8 0 -15 -8 -15 -17 0 -15 -2 -16 -9 -3 -6 8 -7 18 -4
24 3 5 1 6 -5 2 -7 -4 -12 -1 -12 8 0 9 -4 16 -10 16 -5 0 -10 -21 -10 -47 0
-35 -3 -44 -10 -33 -5 8 -10 27 -10 41 0 15 -7 32 -16 40 -8 7 -13 21 -11 31
3 10 2 20 -3 23 -15 9 -18 -34 -4 -59 13 -27 6 -34 -14 -14 -7 7 -12 29 -12
50 0 27 -4 38 -15 38 -11 0 -14 7 -10 23 2 12 0 38 -5 57 l-10 35 5 -37 c3
-28 0 -38 -11 -38 -9 0 -14 -11 -14 -32 l0 -33 -17 30 c-9 17 -17 39 -18 50
-5 51 -18 84 -36 88 -10 3 -19 11 -19 19 0 10 3 9 10 -2 8 -13 10 -12 10 3 0
9 -5 17 -11 17 -15 0 -38 30 -39 50 0 9 7 5 18 -10 21 -32 47 -33 46 -2 0 12
3 22 7 22 3 0 10 -34 14 -76 5 -53 10 -73 16 -63 7 10 9 7 6 -11 -1 -14 -5
-30 -9 -35 -4 -6 -3 -17 3 -25 7 -13 9 -12 9 3 0 9 4 17 9 17 5 0 8 19 7 43
-1 25 -6 41 -13 40 -7 -2 -13 19 -15 52 -3 58 3 65 36 40 10 -8 23 -12 28 -9
4 3 22 -4 38 -16 26 -19 31 -19 35 -6 3 9 7 23 10 32 10 31 13 9 5 -35 -4 -24
-15 -48 -23 -53 -20 -11 -47 -65 -46 -92 0 -13 8 -1 20 29 24 59 34 71 25 30
-5 -22 -4 -26 4 -15 8 12 12 13 19 2 6 -11 10 -10 15 3 3 9 6 27 6 40 0 29 10
55 20 55 4 0 4 -17 -1 -37 -4 -21 -6 -39 -3 -42 7 -7 9 0 27 69 13 51 15 55
11 20 -11 -90 -12 -110 -2 -116 5 -4 9 6 7 22 -1 16 -1 40 0 54 2 25 2 25 17
5 8 -11 12 -30 9 -42 l-5 -22 25 23 c14 13 25 34 26 47 l1 24 8 -25 c6 -20 8
-16 9 24 1 36 -4 52 -16 62 -10 7 -14 16 -9 21 5 4 11 2 13 -5 4 -9 9 -10 17
-3 9 8 12 -3 10 -45 -2 -55 10 -80 20 -46 7 20 1 80 -10 114 -4 15 -2 19 7 16
8 -3 14 -17 14 -31 -1 -14 3 -23 7 -21 4 3 8 -1 8 -8 0 -10 2 -10 9 1 6 9 5
24 0 39 -14 36 -18 82 -8 88 9 5 14 -25 10 -55 -2 -7 2 -10 8 -6 6 3 11 19 11
34 0 16 7 35 16 42 15 13 17 11 12 -18 -2 -18 -1 -30 4 -27 4 3 8 17 9 32 l1
27 7 -25 c4 -15 10 -20 14 -13 4 6 1 28 -7 49 -7 22 -11 44 -9 50 2 6 -2 16
-10 22 -11 9 -13 6 -12 -16 1 -15 0 -19 -2 -9 -5 21 -22 22 -29 3 -3 -8 -12
-12 -20 -9 -10 4 -14 -5 -16 -33 -1 -36 -1 -37 -5 -7 -5 34 -24 56 -53 58 -20
2 -33 -37 -19 -54 6 -8 5 -8 -3 -1 -20 16 -29 11 -23 -12 8 -40 14 -120 8
-114 -4 3 -7 14 -8 24 -1 9 -5 36 -9 60 -8 42 -8 43 -26 22 -11 -12 -16 -31
-14 -51 2 -18 0 -28 -6 -24 -6 4 -10 12 -9 18 1 7 -3 23 -9 37 -10 24 -11 24
-11 3 -1 -13 3 -23 8 -23 5 0 7 -9 4 -20 -6 -23 -23 -17 -23 8 0 28 -15 43
-34 36 -13 -5 -14 -9 -5 -14 7 -5 9 -15 4 -26 -6 -16 -10 -12 -21 21 l-12 40
-2 -50 -2 -50 -12 60 c-10 49 -13 55 -17 31 -6 -43 -29 -46 -31 -4 -1 26 -3
22 -8 -17 -4 -30 -8 -38 -8 -22 -2 24 -5 27 -23 22 -16 -5 -19 -4 -14 5 5 8 4
11 -3 7 -5 -4 -8 -16 -5 -27 3 -11 0 -20 -6 -20 -6 0 -11 4 -11 8 0 5 -11 14
-25 20 -17 8 -25 19 -24 34 1 22 1 22 10 -2 6 -19 7 -15 3 16 -4 28 -1 46 9
55 13 13 17 22 17 35 0 4 7 1 15 -6 8 -7 15 -8 15 -3 0 6 11 22 25 37 15 16
25 39 25 56 0 16 7 36 16 44 17 17 28 60 13 51 -12 -8 -11 3 7 45 12 30 13 31
9 7 -4 -19 -2 -26 5 -22 5 3 10 12 10 20 0 25 23 65 37 65 7 0 13 9 13 20 0
11 7 23 16 27 8 3 14 15 13 27 -3 42 1 57 13 50 8 -5 9 -2 5 10 -6 14 -3 17 9
12 9 -3 2 12 -18 36 l-33 43 44 -37 c25 -21 47 -36 49 -33 3 3 -3 12 -14 21
-10 8 -13 13 -6 9 7 -4 12 0 12 11 0 13 3 14 14 5 12 -10 13 -8 9 9 -3 12 -19
27 -35 32 -37 13 -31 20 8 9 41 -12 64 11 27 28 -14 7 -23 15 -19 18 3 4 12 1
18 -5 18 -18 39 -14 36 6 -2 11 2 16 12 14 11 -3 12 0 4 8 -6 6 -20 12 -32 15
-12 2 -26 6 -31 10 -5 3 -12 1 -16 -4 -3 -5 3 -14 12 -20 10 -6 13 -11 6 -11
-6 0 -15 5 -18 10 -3 6 -15 10 -26 10 -10 0 -19 5 -19 10 0 6 4 10 8 10 5 0 9
7 9 15 0 8 -7 15 -14 15 -8 0 -11 -4 -8 -10z m-78 -1934 c21 -8 64 -17 96 -20
32 -4 72 -13 88 -21 30 -16 40 -32 14 -21 -10 3 -15 -1 -15 -13 0 -16 -8 -18
-77 -14 -57 3 -74 2 -63 -6 16 -12 10 -14 -13 -5 -8 3 -13 13 -10 22 4 19 -32
47 -42 32 -3 -5 -1 -11 5 -15 5 -3 10 -11 10 -18 0 -6 -20 9 -45 33 -24 24
-43 45 -41 47 6 6 36 -9 31 -16 -2 -4 2 -8 9 -8 8 0 11 8 8 19 -5 22 -3 22 45
4z"/>
<path d="M5815 3643 c-4 -16 -10 -36 -16 -45 -6 -13 -6 -18 3 -18 10 0 9 -3
-1 -9 -8 -5 -12 -18 -8 -31 3 -12 3 -19 0 -16 -7 7 -33 -19 -33 -33 0 -6 -4
-11 -10 -11 -5 0 -7 -7 -4 -15 4 -9 0 -15 -10 -15 -10 0 -13 -6 -10 -15 4 -8
2 -15 -4 -15 -5 0 -7 -11 -4 -25 5 -27 -6 -33 -26 -13 -9 9 -13 7 -18 -5 -3
-9 -4 -24 -1 -32 4 -8 3 -16 -1 -19 -4 -3 -9 -22 -10 -42 -4 -58 -72 -325
-106 -421 -9 -23 -17 -56 -18 -73 -1 -16 -5 -30 -8 -30 -4 0 -7 -6 -7 -12 -1
-7 -6 -38 -13 -68 -6 -30 -17 -91 -25 -135 -8 -44 -20 -109 -28 -145 -15 -68
-10 -159 8 -150 6 3 11 -8 13 -24 3 -23 9 -13 32 54 26 75 63 142 101 180 8 9
22 25 30 37 8 11 24 23 37 27 21 7 22 4 23 -41 0 -46 2 -43 34 62 19 61 39
137 45 170 6 33 20 78 30 100 10 22 33 75 50 118 18 44 38 77 46 77 8 0 14 5
14 11 0 5 -4 7 -10 4 -13 -8 -13 6 0 39 8 23 33 38 28 19 -1 -5 4 -27 10 -50
15 -52 12 -161 -5 -167 -7 -3 -11 -19 -10 -35 l2 -30 28 31 c18 19 26 37 22
48 -3 10 0 22 7 26 6 4 14 2 16 -4 6 -18 20 -14 27 8 4 11 11 18 16 15 5 -4 9
1 9 10 0 10 -5 13 -12 9 -8 -5 -9 -2 -5 9 3 10 2 17 -3 17 -6 0 -10 -13 -10
-30 0 -16 -4 -30 -10 -30 -15 0 -11 31 9 69 l18 34 6 -32 c4 -20 11 -30 18
-25 8 4 9 -1 4 -16 -5 -15 -4 -20 4 -16 6 4 11 13 11 21 0 8 5 17 12 21 8 5 9
0 6 -14 -4 -12 -2 -20 2 -17 10 6 23 -12 27 -35 1 -8 -5 -23 -14 -32 -10 -11
-12 -18 -5 -18 7 0 12 5 12 11 0 6 7 8 16 5 8 -3 12 -2 9 3 -3 5 -2 12 3 15 4
2 9 -4 9 -16 1 -13 -3 -18 -13 -14 -8 3 -14 0 -14 -5 0 -6 -15 -24 -32 -40
-24 -21 -28 -29 -16 -29 25 0 32 -19 14 -39 -9 -10 -16 -25 -16 -35 0 -9 -4
-14 -10 -11 -5 3 -10 1 -10 -4 0 -6 5 -11 10 -11 13 0 -18 -62 -36 -73 -8 -4
-14 -13 -14 -19 0 -6 -8 -20 -17 -30 -14 -15 -14 -21 -4 -27 10 -7 10 -9 -2
-14 -14 -5 -28 -57 -28 -107 0 -14 -4 -34 -8 -45 -18 -42 -36 -110 -33 -128 2
-10 -2 -16 -10 -15 -9 2 -15 -24 -20 -102 -9 -115 -35 -239 -53 -255 -7 -5
-22 -41 -34 -79 -38 -120 -73 -193 -128 -265 -35 -47 -45 -49 -16 -3 17 27 17
27 -2 12 -11 -8 -25 -22 -32 -30 -18 -22 -15 -5 5 32 19 33 44 98 38 98 -2 0
-18 -29 -36 -65 -34 -66 -51 -87 -84 -99 -14 -5 -17 -2 -12 9 4 13 2 14 -14 5
-11 -6 -20 -15 -20 -21 0 -6 -7 -6 -20 1 -12 6 -29 8 -40 5 -12 -4 -20 0 -24
12 -7 23 3 -134 11 -164 3 -13 9 -23 15 -23 5 0 6 9 3 20 -3 11 -3 20 1 20 12
0 45 -43 41 -54 -5 -16 79 -61 136 -71 30 -6 39 -3 54 16 49 61 119 108 196
133 13 4 17 16 17 50 0 25 5 58 11 73 6 15 15 37 20 48 4 11 11 31 14 45 4 14
17 52 30 85 12 33 26 69 30 80 8 21 14 54 18 96 1 15 11 36 21 48 11 12 14 21
8 21 -6 0 -13 -6 -16 -12 -3 -7 -3 -2 0 12 4 14 10 27 14 30 7 5 12 36 25 139
4 37 20 108 41 185 8 27 11 52 8 57 -3 5 0 10 5 10 6 1 17 2 24 3 6 1 18 -5
25 -14 12 -13 13 -12 9 7 -6 27 8 40 17 17 5 -13 9 -14 20 -5 10 8 12 21 6 46
-4 19 -7 35 -6 36 12 6 36 5 36 -2 0 -6 4 -8 9 -5 4 3 6 -7 4 -22 -2 -17 0
-21 4 -12 7 12 13 10 35 -12 21 -22 23 -28 10 -28 -12 0 -9 -4 8 -13 34 -18
38 -12 14 21 -11 15 -24 36 -28 46 -7 19 -6 19 13 2 32 -29 35 0 4 39 -15 19
-31 35 -35 35 -5 0 -8 3 -8 8 0 4 14 7 30 8 17 1 30 -3 30 -7 0 -5 -5 -9 -10
-9 -6 0 -6 -7 1 -18 7 -10 18 -19 25 -19 11 0 11 4 -2 18 -9 11 -12 19 -5 23
6 4 -6 22 -27 43 -30 29 -32 32 -10 19 34 -20 55 -22 39 -3 -15 19 -3 28 27
20 24 -6 24 -5 6 16 -17 20 -41 30 -30 13 8 -13 -37 -13 -62 0 -21 11 -22 13
-5 19 11 4 23 0 30 -10 8 -10 12 -12 13 -3 0 6 11 12 24 12 14 0 28 5 31 10 3
6 -1 10 -9 10 -8 0 -18 5 -22 11 -4 8 1 9 17 5 13 -3 2 5 -26 18 -42 21 -46
25 -25 27 34 2 32 2 56 -5 17 -5 22 -3 20 11 0 10 -5 21 -11 25 -13 9 10 33
24 24 5 -4 8 -15 6 -25 -2 -14 4 -21 22 -26 14 -3 28 -3 31 0 3 3 -4 8 -16 12
-18 4 -22 12 -20 32 2 19 -1 25 -12 23 -11 -3 -12 -1 -4 8 9 9 18 9 35 0 23
-11 23 -10 4 5 -11 8 -26 13 -35 9 -8 -4 -26 -8 -40 -10 l-25 -4 25 9 c14 5
22 10 18 11 -19 6 -30 8 -60 10 -33 2 -33 2 7 10 30 6 42 4 51 -8 6 -8 13 -11
17 -6 9 15 -30 54 -57 56 -36 3 -22 11 21 12 40 1 60 26 21 27 -22 0 -22 1 -3
9 11 5 16 9 10 10 -5 1 1 6 15 10 18 7 11 8 -25 5 -27 -3 -44 -2 -37 1 6 3 9
11 6 16 -4 6 -3 8 2 5 6 -3 16 -2 24 3 11 7 8 10 -12 15 -15 4 -33 4 -40 0 -7
-3 -4 1 7 10 13 10 29 14 45 10 24 -6 24 -6 5 8 -11 8 -29 17 -40 20 -19 4
-18 5 2 6 31 1 38 19 17 42 -9 10 -13 19 -8 19 5 0 1 5 -9 11 -9 6 -15 14 -12
19 3 5 -8 8 -25 8 -17 -1 -33 2 -37 5 -3 4 8 7 25 7 18 0 32 4 32 9 0 5 9 13
21 16 24 8 21 14 -11 20 -34 6 -48 24 -30 35 8 5 18 6 22 4 4 -3 16 0 25 5 16
9 15 11 -7 11 -22 1 -23 2 -6 9 19 7 19 8 -2 13 -12 4 -24 3 -26 0 -4 -7 -41
-8 -96 -3 l-25 2 24 10 c17 6 27 6 31 -1 7 -12 40 -3 40 10 0 5 -5 10 -12 12
-9 3 -9 6 0 12 7 4 12 2 12 -3 0 -6 18 -10 43 -10 23 1 32 4 19 6 -12 2 -20 8
-17 13 5 9 -50 24 -70 20 -22 -5 -29 1 -15 10 13 8 12 10 -2 10 -10 0 -18 -4
-18 -10 0 -5 -4 -10 -10 -10 -6 0 -9 6 -8 13 2 7 -7 11 -20 11 -26 -2 -17 12
11 18 33 6 19 23 -30 34 -33 8 -40 12 -23 13 l25 2 -22 11 c-13 6 -23 15 -23
21 0 5 -8 3 -17 -4 -16 -13 -17 -12 -5 3 8 10 20 14 30 11 15 -6 15 -5 3 10
-9 11 -10 17 -2 17 6 0 11 5 11 11 0 5 -4 8 -9 5 -5 -3 -11 3 -14 14 -3 10 -1
20 4 22 16 5 -26 72 -56 88 -32 18 -65 9 -65 -18 0 -10 -4 -10 -16 2 -8 9 -21
16 -27 16 -16 0 -61 -49 -53 -57 3 -3 1 -12 -5 -20 -9 -9 -8 -17 0 -27 10 -12
7 -18 -14 -32 -17 -11 -24 -22 -20 -34 3 -10 -2 -25 -10 -34 -11 -10 -12 -16
-4 -16 9 0 8 -4 -1 -15 -7 -8 -9 -15 -4 -15 5 0 -2 -9 -16 -20 -23 -18 -23
-20 -5 -20 11 0 16 -3 10 -8 -6 -4 -12 -20 -13 -35 -1 -16 -5 -34 -9 -40 -11
-18 -14 -49 -4 -43 17 11 23 -28 6 -41 -10 -6 -14 -16 -11 -21 3 -6 -1 -12 -9
-16 -18 -7 -81 14 -67 23 5 3 11 15 13 26 3 11 9 20 16 20 6 0 15 3 19 8 4 4
3 7 -2 7 -26 0 -9 93 20 112 6 5 2 8 -11 8 -29 0 -35 13 -19 36 10 13 11 23 5
31 -6 7 -7 18 -1 30 22 42 30 82 18 86 -8 3 -8 8 1 18 7 8 16 47 21 87 8 66 7
72 -10 72 -11 0 -20 -10 -23 -27z"/>
<path d="M6313 2243 c-27 -5 -30 -20 -5 -26 16 -4 16 -5 0 -6 -10 0 -18 -7
-18 -13 0 -7 -5 -5 -11 5 -16 27 -29 20 -29 -15 0 -24 -3 -29 -10 -18 -7 11
-11 9 -19 -13 -6 -15 -15 -27 -21 -27 -6 0 -8 -5 -4 -12 4 -6 -1 -17 -11 -24
-22 -16 -58 -94 -44 -94 6 0 7 -5 4 -10 -4 -6 -11 -7 -17 -4 -6 4 -9 3 -5 -2
3 -5 -3 -26 -13 -47 -10 -21 -14 -39 -9 -43 5 -3 7 -10 3 -15 -6 -11 13 -39
27 -39 5 0 14 11 19 25 5 14 16 25 25 25 13 0 19 11 16 32 0 3 16 6 37 6 20 0
41 0 45 1 15 2 -21 31 -38 31 -9 0 -13 5 -10 10 4 6 20 9 37 6 22 -3 28 -1 24
9 -3 8 -1 17 3 20 11 6 23 -23 15 -37 -3 -5 -12 -7 -20 -4 -8 3 -14 1 -14 -4
0 -6 7 -10 16 -10 8 0 12 -4 9 -10 -3 -5 -1 -10 4 -10 6 0 11 10 11 23 0 18 2
19 10 7 8 -11 9 -8 6 12 -3 15 -7 32 -11 38 -3 6 4 10 17 10 l23 0 -25 21
c-14 11 -20 18 -13 15 6 -4 14 -2 18 4 4 6 10 8 15 5 13 -8 24 15 12 27 -6 6
-8 16 -5 24 2 7 -5 23 -16 35 -22 24 -30 52 -9 31 14 -14 38 -16 38 -3 0 5 -9
13 -20 16 -11 3 -20 13 -20 22 0 14 3 14 20 -2 11 -10 23 -15 27 -12 3 4 1 7
-5 7 -6 0 -14 9 -17 20 -3 11 -9 19 -13 19 -4 -1 -17 -4 -29 -6z"/>
<path d="M6230 1778 c-1 -23 -1 -23 -16 -3 l-16 20 4 -20 c2 -11 9 -26 16 -33
16 -18 15 -33 -2 -26 -8 3 -27 -2 -43 -11 -15 -9 -20 -14 -10 -11 9 3 17 1 17
-4 0 -6 -12 -10 -28 -10 -16 0 -32 -8 -40 -20 -14 -23 0 -27 18 -5 13 16 55
21 46 6 -7 -11 33 -22 62 -16 12 2 22 1 22 -3 0 -4 34 -7 75 -8 41 0 75 3 75
8 0 4 -9 8 -19 8 -11 0 -23 5 -26 10 -3 6 -15 10 -26 10 -11 0 -17 5 -14 10 3
6 1 10 -4 10 -6 0 -11 7 -11 16 0 8 -5 12 -10 9 -6 -3 -13 1 -16 10 -4 9 -12
14 -19 11 -17 -6 -44 14 -27 21 14 6 16 29 2 38 -6 3 -10 -4 -10 -17z"/>
<path d="M3732 1578 c-10 -10 -8 -15 10 -25 22 -11 21 -12 -9 -8 -18 2 -38 7
-44 11 -8 5 -9 2 -2 -11 8 -13 6 -26 -6 -46 -9 -16 -20 -29 -24 -29 -9 0 -59
31 -67 41 -3 4 -22 11 -42 17 -31 8 -38 8 -38 -4 0 -8 5 -14 10 -14 6 0 10 -4
10 -10 0 -18 -22 -10 -27 10 -3 11 -9 20 -14 20 -5 0 -11 0 -14 0 -3 0 -5 -2
-5 -5 0 -3 3 -5 7 -4 14 2 25 -33 13 -41 -7 -4 -11 -24 -9 -46 3 -47 9 -60 19
-44 5 8 10 9 14 2 3 -6 -1 -17 -9 -26 -13 -13 -19 -13 -43 0 -15 7 -34 14 -42
14 -17 1 -70 29 -56 30 6 0 1 6 -10 14 -14 11 -21 11 -26 3 -6 -9 -8 -9 -8 0
0 6 -9 11 -20 10 -28 -2 -27 -43 2 -58 12 -6 33 -22 47 -35 43 -40 133 -78
153 -65 12 7 19 7 24 0 8 -14 56 -2 71 18 7 9 16 13 20 9 10 -10 -18 -57 -42
-70 -11 -6 -22 -13 -25 -16 -15 -15 -72 -39 -83 -34 -10 3 -14 -8 -15 -43 0
-27 -6 -62 -12 -78 -9 -23 -8 -30 5 -37 8 -5 13 -13 10 -18 -3 -5 -1 -11 5
-15 13 -8 13 -65 0 -65 -5 0 -10 -4 -10 -8 0 -5 20 -6 45 -2 26 4 48 3 52 -3
3 -5 20 -7 37 -4 24 4 35 1 44 -13 15 -24 -1 -35 -21 -16 -8 8 -16 14 -18 12
-2 -2 -30 -6 -62 -10 -31 -3 -70 -12 -85 -19 -15 -8 -39 -17 -53 -20 -46 -12
-179 -76 -179 -88 0 -15 58 -4 79 15 9 8 56 27 104 43 71 24 90 27 94 16 3 -7
-7 -23 -21 -34 -14 -11 -24 -24 -21 -29 7 -11 55 -19 55 -9 0 5 5 9 11 9 5 0
7 -5 3 -11 -11 -19 43 -1 87 28 26 17 56 27 87 29 26 1 58 4 72 7 51 9 260
103 260 117 0 4 13 23 30 41 16 19 32 50 35 69 11 67 15 80 24 77 5 -1 17 7
25 18 l15 20 1 -20 c0 -15 2 -17 9 -6 6 10 13 10 29 2 15 -8 23 -7 33 5 19 23
52 34 62 20 6 -7 7 -6 4 4 -2 10 -14 14 -33 13 l-29 -2 28 10 c15 6 25 14 23
18 -3 4 15 7 39 7 25 -1 45 2 45 6 0 3 13 13 30 21 25 13 31 13 41 1 6 -8 21
-12 33 -10 11 2 15 1 7 -1 -11 -4 -11 -7 -1 -13 8 -5 4 -8 -13 -7 -15 1 -27 6
-27 11 0 5 -3 6 -6 3 -4 -4 -1 -13 6 -22 10 -12 10 -15 -3 -15 -8 0 -18 -6
-20 -12 -4 -10 -8 -10 -15 1 -6 8 -17 11 -26 8 -30 -12 -16 -24 22 -20 91 9
97 8 95 -7 -3 -13 5 -15 45 -10 l47 5 -2 90 c-1 50 -5 117 -8 150 -4 33 -7 71
-7 85 l0 24 -19 -24 c-11 -14 -17 -18 -14 -9 6 17 -21 46 -32 35 -3 -3 -15 2
-26 11 -15 13 -21 15 -24 5 -3 -6 -10 -9 -15 -6 -7 4 -8 2 -4 -5 4 -6 11 -9
15 -7 4 3 13 0 21 -6 12 -8 12 -9 -2 -4 -10 3 -18 1 -18 -4 0 -9 -60 -7 -76 3
-6 3 -16 2 -24 -4 -8 -5 -10 -9 -5 -10 6 -1 15 -3 20 -4 6 -2 20 -3 33 -4 l22
-1 -20 -20 c-27 -27 -25 -40 6 -40 14 0 23 -4 19 -10 -4 -6 -11 -7 -17 -4 -7
4 -8 2 -4 -5 4 -6 0 -14 -9 -17 -9 -4 -14 -12 -12 -19 3 -6 -1 -12 -9 -12 -8
0 -14 4 -14 8 0 3 -9 9 -20 12 -13 3 -20 0 -20 -9 0 -8 -6 -11 -17 -7 -12 5
-15 2 -10 -10 7 -19 -9 -24 -16 -4 -4 9 -7 9 -14 0 -14 -20 -65 -8 -90 21 -15
18 -29 26 -40 22 -13 -5 -14 -4 -4 8 13 16 7 36 -11 36 -5 0 -21 9 -35 19 -13
11 -32 17 -41 14 -14 -4 -15 -3 -2 6 12 8 11 11 -5 17 -11 4 -28 14 -39 23
-10 9 -20 15 -22 14 -8 -5 -45 14 -45 22 1 6 -9 11 -21 12 -44 4 -68 9 -75 18
-5 4 -3 5 3 2 6 -3 11 0 11 8 0 9 -4 11 -11 6 -6 -5 -19 -7 -28 -6 -10 2 -18
-1 -18 -6 0 -16 -28 -10 -32 7 -2 12 -5 13 -16 2z"/>
</g>
</svg>
